<svg xmlns="http://www.w3.org/2000/svg" width="768" height="32" viewBox="0 0 768 32" shape-rendering="crispEdges">
<rect width="768" height="32" fill="none"/>
<!-- 0 wall --> <g transform="translate(0 0)"><rect width="32" height="32" fill="#171b22"/><rect y="0" width="32" height="5" fill="#c9b27e"/><rect y="6" width="32" height="5" fill="#2b313c"/><rect y="14" width="32" height="5" fill="#2b313c"/><rect y="22" width="32" height="5" fill="#2b313c"/></g>
<!-- 1 wood --> <g transform="translate(32 0)"><rect width="32" height="32" fill="#8d674a"/><path d="M0 8h32M0 16h32M0 24h32M8 0v8M22 8v8M12 16v8M26 24v8" stroke="#704c37" stroke-width="1"/></g>
<!-- 2 stone --> <g transform="translate(64 0)"><rect width="32" height="32" fill="#d2c8b7"/><path d="M0 16h32M16 0v32" stroke="#b7ad9f"/></g>
<!-- 3 private carpet --> <g transform="translate(96 0)"><rect width="32" height="32" fill="#355a4d"/><circle cx="8" cy="8" r="2" fill="#d6b36c"/><circle cx="24" cy="8" r="2" fill="#d6b36c"/><circle cx="8" cy="24" r="2" fill="#d6b36c"/><circle cx="24" cy="24" r="2" fill="#d6b36c"/></g>
<!-- 4 door --> <g transform="translate(128 0)"><rect width="32" height="32" fill="#8d674a"/><rect x="10" y="2" width="12" height="28" rx="1" fill="#7a4f2d" stroke="#e3bd75" stroke-width="2"/><circle cx="19" cy="16" r="1.5" fill="#f1d394"/></g>
<!-- 5 dark floor --> <g transform="translate(160 0)"><rect width="32" height="32" fill="#151c27"/><path d="M0 16h32M16 0v32" stroke="#263142"/></g>
<!-- 6 desk --> <g transform="translate(192 0)"><rect width="32" height="32" fill="none"/><rect x="5" y="10" width="22" height="10" fill="#87552f" stroke="#3d2818"/><rect x="7" y="20" width="3" height="8" fill="#49311f"/><rect x="22" y="20" width="3" height="8" fill="#49311f"/><rect x="12" y="6" width="8" height="5" fill="#243447"/><rect x="14" y="7" width="4" height="2" fill="#71a6c9"/></g>
<!-- 7 plant --> <g transform="translate(224 0)"><rect width="32" height="32" fill="none"/><rect x="12" y="20" width="8" height="8" fill="#8b5a35"/><path d="M16 20c-8-8 0-15 0-15 1 7 8 4 8 4-2 7-8 11-8 11zM16 20c-6-1-8-8-8-8 6 0 8 4 8 8z" fill="#4b8757"/></g>
<!-- 8 executive sofa --> <g transform="translate(256 0)"><rect width="32" height="32" fill="none"/><rect x="4" y="12" width="24" height="12" rx="3" fill="#282d35"/><rect x="6" y="9" width="20" height="7" rx="3" fill="#373e49"/><rect x="6" y="24" width="4" height="4" fill="#1d2026"/><rect x="22" y="24" width="4" height="4" fill="#1d2026"/></g>
<!-- 9 chair --> <g transform="translate(288 0)"><rect width="32" height="32" fill="none"/><rect x="10" y="9" width="12" height="9" rx="2" fill="#3b4655"/><rect x="11" y="18" width="10" height="7" fill="#2c3542"/><rect x="15" y="25" width="2" height="5" fill="#59616d"/></g>
<!-- 10 screen --> <g transform="translate(320 0)"><rect width="32" height="32" fill="none"/><rect x="3" y="4" width="26" height="16" fill="#1e2733" stroke="#b99154" stroke-width="2"/><rect x="6" y="7" width="20" height="10" fill="#4e6d86"/><rect x="14" y="20" width="4" height="6" fill="#74603f"/><rect x="9" y="26" width="14" height="2" fill="#74603f"/></g>
<!-- 11 reception desk --> <g transform="translate(352 0)"><rect width="32" height="32" fill="none"/><rect x="3" y="11" width="26" height="14" fill="#8f613a" stroke="#4c321f"/><rect x="7" y="7" width="18" height="7" fill="#b07b48"/><rect x="9" y="15" width="14" height="3" fill="#c9b27e"/></g>
<!-- 12 round table --> <g transform="translate(384 0)"><rect width="32" height="32" fill="none"/><circle cx="16" cy="15" r="9" fill="#765133" stroke="#3f2c1e"/><rect x="14" y="23" width="4" height="6" fill="#4e3928"/></g>
<!-- 13 bookshelf --> <g transform="translate(416 0)"><rect width="32" height="32" fill="none"/><rect x="5" y="3" width="22" height="26" fill="#4d3424" stroke="#2a1d15"/><path d="M7 10h18M7 18h18M7 26h18" stroke="#9f7447"/><path d="M9 5v4M12 4v5M17 5v4M21 4v5M10 12v5M15 11v6M20 12v5M24 11v6M8 20v5M13 20v5M18 19v6M23 20v5" stroke="#c85745" stroke-width="2"/></g>
<!-- 14 rug --> <g transform="translate(448 0)"><rect width="32" height="32" fill="#263642"/><rect x="3" y="3" width="26" height="26" fill="#314856" stroke="#b99154" stroke-width="2"/><rect x="9" y="9" width="14" height="14" fill="#29404d"/></g>
<!-- 15 auditorium stage --> <g transform="translate(480 0)"><rect width="32" height="32" fill="none"/><rect x="2" y="8" width="28" height="17" fill="#5a3a2a" stroke="#d0a35d" stroke-width="2"/><rect x="5" y="3" width="22" height="6" fill="#1c2430"/></g>
<!-- 16 glass --> <g transform="translate(512 0)"><rect width="32" height="32" fill="#5c7888" opacity=".42"/><rect x="1" y="1" width="30" height="30" fill="none" stroke="#9dc4d6" stroke-width="2"/></g>
<!-- 17 light floor --> <g transform="translate(544 0)"><rect width="32" height="32" fill="#b9ad98"/><path d="M0 8h32M0 24h32M8 0v32M24 0v32" stroke="#9c927f" stroke-width="1"/></g>
<!-- 18 gold accent --> <g transform="translate(576 0)"><rect width="32" height="32" fill="#2b313c"/><rect x="4" y="4" width="24" height="24" fill="none" stroke="#d4af62" stroke-width="3"/></g>
<!-- 19 coffee bar --> <g transform="translate(608 0)"><rect width="32" height="32" fill="none"/><rect x="3" y="15" width="26" height="10" fill="#5e4130"/><rect x="6" y="7" width="6" height="8" fill="#27303a"/><rect x="18" y="9" width="7" height="6" fill="#a7b1b8"/><rect x="8" y="25" width="3" height="4" fill="#31241c"/><rect x="21" y="25" width="3" height="4" fill="#31241c"/></g>
<!-- 20 side table --> <g transform="translate(640 0)"><rect width="32" height="32" fill="none"/><rect x="9" y="10" width="14" height="10" fill="#714d31"/><rect x="11" y="20" width="2" height="7" fill="#3f2d20"/><rect x="19" y="20" width="2" height="7" fill="#3f2d20"/></g>
<!-- 21 lounge chair --> <g transform="translate(672 0)"><rect width="32" height="32" fill="none"/><rect x="8" y="9" width="16" height="15" rx="4" fill="#6e5949"/><rect x="10" y="7" width="12" height="7" rx="4" fill="#8b725f"/><rect x="10" y="24" width="3" height="4" fill="#3a2c24"/><rect x="19" y="24" width="3" height="4" fill="#3a2c24"/></g>
<!-- 22 label plaque --> <g transform="translate(704 0)"><rect width="32" height="32" fill="none"/><rect x="3" y="8" width="26" height="16" rx="2" fill="#10151c" stroke="#d4af62" stroke-width="2"/><rect x="7" y="13" width="18" height="2" fill="#d7dce2"/><rect x="9" y="18" width="14" height="2" fill="#7e8995"/></g>
<!-- 23 divider --> <g transform="translate(736 0)"><rect width="32" height="32" fill="none"/><rect x="5" y="3" width="22" height="26" fill="#24313c" stroke="#c9b27e" stroke-width="2"/><path d="M9 5v22M16 5v22M23 5v22" stroke="#5f7c8c"/></g>
</svg>